<?xml version="1.0" encoding="UTF-8"?>
<svg width="18px" height="19px" viewBox="0 0 18 19" version="1.1" xmlns="http://www.w3.org/2000/svg" xmlns:xlink="http://www.w3.org/1999/xlink">
    <!-- Generator: Sketch 64 (93537) - https://sketch.com -->
    <title>Icon/Add</title>
    <desc>Created with Sketch.</desc>
    <defs>
        <path d="M9.5,7.50801086 L9.5,13.1455399 L8,13.1455399 L8,7.50801086 L9.5,7.50801086 Z M9.63114754,5.23560763 L9.63114754,5.34726127 C9.63114754,5.83390562 9.23664435,6.22840881 8.75,6.22840881 C8.26335565,6.22840881 7.86885246,5.83390562 7.86885246,5.34726127 L7.86885246,5.23560763 C7.86885246,4.74896329 8.26335565,4.35446009 8.75,4.35446009 C9.23664435,4.35446009 9.63114754,4.74896329 9.63114754,5.23560763 Z M8.7295082,0 C11.1338918,0 13.1967127,0.855820863 14.9180328,2.56748826 C16.6393529,4.27915566 17.5,6.3399723 17.5,8.75 C17.5,11.1600277 16.6393529,13.2208443 14.9180328,14.9325117 C13.1967127,16.6441791 11.1338918,17.5 8.7295082,17.5 C6.32512459,17.5 4.26913422,16.6441791 2.56147541,14.9325117 C0.853816598,13.2208443 0,11.1600277 0,8.75 C0,6.3399723 0.853816598,4.27915566 2.56147541,2.56748826 C4.26913422,0.855820863 6.32512459,0 8.7295082,0 Z M8.75,16.1258803 C10.7725511,16.1258803 12.5010174,15.4069908 13.9354508,13.9691901 C15.3698842,12.5313895 16.0870902,10.7916769 16.0870902,8.75 C16.0870902,6.70832313 15.3698842,4.96861048 13.9354508,3.53080986 C12.5010174,2.09300924 10.7725511,1.37411972 8.75,1.37411972 C6.7274489,1.37411972 4.99898258,2.09300924 3.56454918,3.53080986 C2.13011578,4.96861048 1.41290984,6.70832313 1.41290984,8.75 C1.41290984,10.7916769 2.13011578,12.5313895 3.56454918,13.9691901 C4.99898258,15.4069908 6.7274489,16.1258803 8.75,16.1258803 Z" id="path-1"></path>
    </defs>
    <g id="Page-1" stroke="none" stroke-width="1" fill="none" fill-rule="evenodd">
        <g id="Citations-Results_No-filters" transform="translate(-95.000000, -411.000000)">
            <g id="Info-link" transform="translate(92.000000, 398.000000)">
                <g id="Icon/Info" transform="translate(0.000000, 10.500000)">
                    <g id="info-24px">
                        <polygon id="Path" points="0 0 24 0 24 24 0 24"></polygon>
                    </g>
                    <g id="Group" transform="translate(3.250000, 3.250000)">
                        <mask id="mask-2" fill="white">
                            <use xlink:href="#path-1"></use>
                        </mask>
                        <use id="Mask" fill="#333333" xlink:href="#path-1"></use>
                        <g id="↳🎨icon-color" mask="url(#mask-2)" fill="#006272">
                            <g transform="translate(-36.250000, -36.250000)" id="Icon-Shade">
                                <rect x="0" y="0" width="90" height="90"></rect>
                            </g>
                        </g>
                    </g>
                </g>
            </g>
        </g>
    </g>
</svg>