<?xml version="1.0" encoding="UTF-8"?>
<svg width="14px" height="14px" viewBox="0 0 14 14" version="1.1" xmlns="http://www.w3.org/2000/svg" xmlns:xlink="http://www.w3.org/1999/xlink">
    <!-- Generator: Sketch 64 (93537) - https://sketch.com -->
    <title>Icon/ New-window</title>
    <desc>Created with Sketch.</desc>
    <g id="Page-1" stroke="none" stroke-width="1" fill="none" fill-rule="evenodd">
        <g id="Citations-Results_No-filters" transform="translate(-153.000000, -1014.000000)" fill="#006272">
            <g id="Group" transform="translate(92.000000, 459.000000)">
                <g id="Open-Row" transform="translate(0.000000, 375.000000)">
                    <g id="Icon/-New-window" transform="translate(56.000000, 175.000000)">
                        <path d="M17.4444444,17.4444444 L6.55555556,17.4444444 L6.55555556,6.55555556 L10,6.55555556 L10,5 L6.55555556,5 C5.69222222,5 5,5.7 5,6.55555556 L5,17.4444444 C5,18.3 5.69222222,19 6.55555556,19 L17.4444444,19 C18.3,19 19,18.3 19,17.4444444 L19,14 L17.4444444,14 L17.4444444,17.4444444 Z M13.5555556,5 L13.5555556,6.55555556 L16.3477778,6.55555556 L8.70222222,14.2011111 L9.79888889,15.2977778 L17.4444444,7.65222222 L17.4444444,10.4444444 L19,10.4444444 L19,5 L13.5555556,5 Z" id="Shape"></path>
                    </g>
                </g>
            </g>
        </g>
    </g>
</svg>