<?xml version="1.0" encoding="utf-8"?>
<!-- Generator: Adobe Illustrator 23.0.3, SVG Export Plug-In . SVG Version: 6.00 Build 0)  -->
<svg version="1.1" id="Layer_1" xmlns="http://www.w3.org/2000/svg" xmlns:xlink="http://www.w3.org/1999/xlink" x="0px" y="0px"
	 viewBox="0 0 93 40" style="enable-background:new 0 0 93 40;" xml:space="preserve">
<style type="text/css">
	.st0{fill:#FFFFFF;}
	.st1{fill:#DCF4FA;}
</style>
<g>
	<g>
		<path class="st0" d="M10.12,25.44L8.1,26.47l-2.2-4.41c-0.25-0.51-0.63-0.74-1.11-0.74H3.25c-0.16,0-0.36,0.03-0.54,0.22
			l-0.21,0.22v4.31H0.2V13.53h5.4c2.23,0,4.17,1.69,4.17,3.95c0,1.52-0.88,2.73-2.15,3.36c0.17,0.14,0.33,0.33,0.46,0.57
			L10.12,25.44z M5.61,15.68h-3.1v3.58c0.28-0.06,0.6-0.09,0.98-0.09h2.1c1.14,0,1.88-0.88,1.88-1.69
			C7.47,16.66,6.73,15.68,5.61,15.68z"/>
		<path class="st0" d="M17.64,22.76h-3.82c-0.33,0-0.92-0.11-0.92-0.11c0.58,1.28,1.55,1.71,2.54,1.71c0.88,0,1.8-0.32,2.53-0.7
			L19,25.36c-1.09,0.65-2.38,1.01-3.63,1.01c-2.72,0-4.85-1.9-4.85-4.61c0-2.59,2.15-4.61,4.71-4.61c2.13,0,4.36,1.66,4.36,3.92
			C19.59,22.16,18.69,22.76,17.64,22.76z M15.23,19.17c-1.15,0-2.32,0.84-2.38,1.96c0.17-0.09,0.54-0.16,0.79-0.16h3.1
			c0.25,0,0.6,0.08,0.74,0.14C17.39,19.85,16.27,19.17,15.23,19.17z"/>
		<path class="st0" d="M29.49,24.41l-1.3,1.91l-0.6-0.39c-0.22-0.14-0.39-0.17-0.6-0.17c-0.27,0-0.55,0.08-0.87,0.17
			c-0.68,0.21-1.53,0.33-2.31,0.33c-1.85,0-3.44-0.95-3.44-2.91c0-2.43,2.29-2.67,4.22-2.69c0.52,0,1.28-0.09,1.28-0.71
			c0-0.66-0.87-0.79-1.36-0.79c-0.99,0-2.23,0.43-2.75,0.68l-0.88-1.74c0.96-0.54,2.34-0.96,3.63-0.96c2.1,0,3.6,1.17,3.6,3.32v2.5
			c0,0.51,0.19,0.68,0.51,0.88L29.49,24.41z M25.81,22.96v-0.71c-0.39,0.17-1.03,0.25-1.58,0.25c-0.66,0-1.55,0.24-1.55,0.88
			c0,0.68,0.62,1.04,1.33,1.04c0.69,0,1.6-0.19,1.99-0.3C25.94,23.91,25.81,23.36,25.81,22.96z"/>
		<path class="st0" d="M37.6,25.22c-0.96,0.6-2.12,1.12-3.46,1.12c-3.1,0-4.64-2.29-4.64-4.58s1.55-4.58,4.64-4.58
			c1.34,0,2.48,0.52,3.46,1.12l-1.06,1.88c-0.74-0.43-1.53-0.85-2.4-0.85c-1.56,0-2.34,1.22-2.34,2.43c0,1.22,0.77,2.43,2.34,2.43
			c0.87,0,1.67-0.44,2.42-0.87L37.6,25.22z"/>
		<path class="st0" d="M46.47,26.07h-2.31v-5.26c0-0.81-0.49-1.55-1.67-1.55c-0.58,0-1.22,0.27-1.83,0.27h-0.05v6.54h-2.31V13.53
			h2.31v3.89h0.05c0.6,0,1.22-0.25,1.83-0.25c2.4,0,3.98,1.64,3.98,3.77V26.07z"/>
	</g>
	<g>
		<path class="st1" d="M55.2,17.3l3.44,8.76h-0.9l-1.07-2.72h-3.99l-1.05,2.72h-0.88l3.52-8.76H55.2z M56.39,22.63l-1.69-4.49
			l-1.75,4.49H56.39z"/>
		<path class="st1" d="M61.13,17.3v8.05h4.91v0.71H60.3V17.3H61.13z"/>
		<path class="st1" d="M71.65,17.3c0.39,0,0.75,0.05,1.07,0.17c0.32,0.11,0.59,0.27,0.82,0.49c0.23,0.22,0.41,0.48,0.53,0.79
			c0.12,0.31,0.18,0.66,0.18,1.05c0,0.39-0.06,0.74-0.18,1.06c-0.12,0.31-0.3,0.57-0.53,0.79c-0.23,0.22-0.5,0.38-0.82,0.49
			c-0.32,0.11-0.68,0.17-1.07,0.17h-3.05v3.75h-0.83V17.3H71.65z M71.46,21.6c0.58,0,1.05-0.15,1.41-0.44
			c0.36-0.29,0.54-0.74,0.54-1.35c0-0.6-0.18-1.05-0.54-1.35c-0.36-0.29-0.83-0.44-1.41-0.44h-2.87v3.58H71.46z"/>
		<path class="st1" d="M77.19,17.3v3.8h5.2v-3.8h0.83v8.76h-0.83v-4.24h-5.2v4.24h-0.83V17.3H77.19z"/>
		<path class="st1" d="M89.36,17.3l3.44,8.76h-0.9l-1.07-2.72h-3.99l-1.05,2.72h-0.88l3.52-8.76H89.36z M90.55,22.63l-1.69-4.49
			l-1.75,4.49H90.55z"/>
	</g>
</g>
</svg>
