<?xml version="1.0" encoding="UTF-8"?>
<svg width="16px" height="16px" viewBox="0 0 16 16" version="1.1" xmlns="http://www.w3.org/2000/svg" xmlns:xlink="http://www.w3.org/1999/xlink">
    <!-- Generator: Sketch 59.1 (86144) - https://sketch.com -->
    <title>Icon_Menu_16px</title>
    <desc>Created with Sketch.</desc>
    <g id="Icon_Menu_16px" stroke="none" stroke-width="1" fill="none" fill-rule="evenodd">
        <path d="M15.2,13 C15.648,13 16,13.44 16,14 C16,14.56 15.648,15 15.2,15 L15.2,15 L0.8,15 C0.352,15 0,14.56 0,14 C0,13.44 0.352,13 0.8,13 L0.8,13 Z M15.2,7 C15.648,7 16,7.44 16,8 C16,8.56 15.648,9 15.2,9 L15.2,9 L0.8,9 C0.352,9 0,8.56 0,8 C0,7.44 0.352,7 0.8,7 L0.8,7 Z M15.2,1 C15.648,1 16,1.44 16,2 C16,2.56 15.648,3 15.2,3 L15.2,3 L0.8,3 C0.352,3 0,2.56 0,2 C0,1.44 0.352,1 0.8,1 L0.8,1 Z" id="Combined-Shape" fill="#000000" fill-rule="nonzero"></path>
    </g>
</svg>