<?xml version="1.0" encoding="UTF-8"?>
<svg width="24px" height="24px" viewBox="0 0 24 24" version="1.1" xmlns="http://www.w3.org/2000/svg" xmlns:xlink="http://www.w3.org/1999/xlink">
    <!-- Generator: Sketch 59.1 (86144) - https://sketch.com -->
    <title>Icon_Research_24px</title>
    <desc>Created with Sketch.</desc>
    <g id="Icon_Research_24px" stroke="none" stroke-width="1" fill="none" fill-rule="evenodd">
        <path d="M10.5,5 C11.3179292,5 12.0441159,5.39279608 12.5002169,6.00004507 L12.7638055,6.00009834 C13.3131288,5.3862919 14.1114527,5 15,5 L19,5 C19.8885473,5 20.6868712,5.3862919 21.2361945,6.00009834 L22,6 L21.9998622,7.97094722 C21.999954,7.9806206 22,7.99030493 22,8 L21.999,8.029 L21.999,17.971 L22,18 L21,18 L20.9998461,17.9749325 C20.9864209,16.8819148 20.0962015,16 19,16 L19,16 L15,16 C13.8954305,16 13,16.8954305 13,18 L13,18 C13,18.5522847 12.5522847,19 12,19 C11.4477153,19 11,18.5522847 11,18 L10.9945143,17.8507377 C10.9181651,16.8158778 10.0543618,16 9,16 L9,16 L5,16 C3.8954305,16 3,16.8954305 3,18 L3,18 L2,18 L2,6 L2.49978306,6.00004507 C2.95588414,5.39279608 3.68207085,5 4.5,5 L10.5,5 Z M9.92857143,6 L5.07142857,6 C4.41820988,6 3.8625137,6.41754351 3.65667809,7.00029246 L3,7 L3.00009834,15.7638055 C3.53084306,15.2888179 4.23169302,15 5,15 L5,15 L9,15 C10.3117996,15 11.4269497,15.8419562 11.8345346,17.0149527 C11.8879864,17.0046948 11.9434449,17 12,17 L12,7 L11.3433219,7.00029246 C11.1374863,6.41754351 10.5817901,6 9.92857143,6 Z M19,6 L15,6 C13.9456382,6 13.0818349,6.81587779 13.0054857,7.85073766 L13,8 L13.0000983,15.7638055 C13.5308431,15.2888179 14.231693,15 15,15 L15,15 L19,15 C19.768307,15 20.4691569,15.2888179 20.9999017,15.7638055 L20.999,7.975 L20.9945143,7.85073766 C20.9181651,6.81587779 20.0543618,6 19,6 Z M19,12 L19,13 L14,13 L14,12 L19,12 Z M10,12 L10,13 L5,13 L5,12 L10,12 Z M20,10 L20,11 L14,11 L14,10 L20,10 Z M11,10 L11,11 L5,11 L5,10 L11,10 Z M19,8 L19,9 L14,9 L14,8 L19,8 Z M10,8 L10,9 L5,9 L5,8 L10,8 Z" id="Combined-Shape" fill="#292929"></path>
    </g>
</svg>