<?xml version="1.0" encoding="UTF-8"?>
<svg width="16px" height="16px" viewBox="0 0 16 16" version="1.1" xmlns="http://www.w3.org/2000/svg" xmlns:xlink="http://www.w3.org/1999/xlink">
    <!-- Generator: Sketch 59.1 (86144) - https://sketch.com -->
    <title>Icon_Search_16px</title>
    <desc>Created with Sketch.</desc>
    <g id="Icon_Search_16px" stroke="none" stroke-width="1" fill="none" fill-rule="evenodd">
        <path d="M7.18322896,1 C10.3219896,1 12.8664579,3.54446828 12.8664579,6.68322896 C12.8664579,7.99623315 12.4211988,9.20524148 11.6734375,10.1674969 L15.5,13.9953376 L14.4953376,15 L10.6674969,11.1734375 C9.70524148,11.9211988 8.49623315,12.3664579 7.18322896,12.3664579 C4.04446828,12.3664579 1.5,9.82198965 1.5,6.68322896 C1.5,3.54446828 4.04446828,1 7.18322896,1 Z M7.18322896,2.42080724 C4.82915845,2.42080724 2.92080724,4.32915845 2.92080724,6.68322896 C2.92080724,9.03729947 4.82915845,10.9456507 7.18322896,10.9456507 C9.53729947,10.9456507 11.4456507,9.03729947 11.4456507,6.68322896 C11.4456507,4.32915845 9.53729947,2.42080724 7.18322896,2.42080724 Z" id="Icon-/-16px-/-Search" fill="#ffffff"></path>
    </g>
</svg>
