<?xml version="1.0" encoding="UTF-8"?>
<svg width="405px" height="390px" viewBox="0 0 405 390" version="1.1" xmlns="http://www.w3.org/2000/svg" xmlns:xlink="http://www.w3.org/1999/xlink">
    <!-- Generator: Sketch 59.1 (86144) - https://sketch.com -->
    <title>Illustration_Glass</title>
    <desc>Created with Sketch.</desc>
    <g id="Illustration_Glass" stroke="none" stroke-width="1" fill="none" fill-rule="evenodd">
        <g id="Group-12" transform="translate(83.000000, 86.000000)">
            <path d="M6,52 L102,52 L102,52 L100.162162,64 L6,64 C2.6862915,64 4.05812251e-16,61.3137085 0,58 C-4.05812251e-16,54.6862915 2.6862915,52 6,52 Z" id="Rectangle" fill="#BEEBF4"></path>
            <path d="M6,19 L123,19 L123,19 L112.67144,31 L6,31 C2.6862915,31 4.05812251e-16,28.3137085 0,25 C-4.05812251e-16,21.6862915 2.6862915,19 6,19 Z" id="Rectangle-Copy-9" fill="#BEEBF4"></path>
            <path d="M6,85 L102.387931,85 L102.387931,85 L107,97 L6,97 C2.6862915,97 4.05812251e-16,94.3137085 0,91 C-4.05812251e-16,87.6862915 2.6862915,85 6,85 Z" id="Rectangle-Copy-6" fill="#BEEBF4"></path>
            <rect id="Rectangle" fill="#F0F6FF" x="109" y="5" width="119" height="119" rx="59.5"></rect>
            <path d="M107,45 L184,45 C191.731986,45 198,51.2680135 198,59 C198,66.7319865 191.731986,73 184,73 L107,73 L107,73 L107,45 Z" id="Rectangle-Copy-5" fill="#BEEBF4"></path>
            <path d="M115,92 L184,92 C191.731986,92 198,98.2680135 198,106 C198,113.731986 191.731986,120 184,120 L142.666667,120 L142.666667,120 C137.0525,116.689291 132.441389,113.267069 128.833333,109.733333 C125.225277,106.199598 120.614166,100.288487 115,92 Z" id="Rectangle-Copy-7" fill="#BEEBF4"></path>
            <path d="M128,13 L191.400474,13 C195.045292,13 198,15.9547084 198,19.5995259 L198,19.5995259 L198,19.5995259 C192.566014,23.4835242 186.425663,25.9976293 179.578947,27.1418411 C172.732232,28.286053 163.828723,28.286053 152.868421,27.1418411 C145.419269,25.6831682 139.892954,23.1690631 136.289474,19.5995259 C132.685994,16.0299886 129.922836,13.8301466 128,13 Z" id="Rectangle-Copy-8" fill="#BEEBF4" transform="translate(163.000000, 20.500000) scale(1, -1) translate(-163.000000, -20.500000) "></path>
            <path d="M108.844626,119.593976 L109.754304,120.503655 C115.28072,126.03007 117.624114,132.646764 114.988423,135.282456 L114.554574,135.716305 L114.478397,135.788208 L114.480817,135.790062 L40.5001938,209.770685 L40.418,209.688508 L40.1731334,209.936501 C37.6197915,212.509005 31.2422504,210.254402 25.9284807,204.900687 L25.0538051,204.019436 C19.7400354,198.665721 17.5022536,192.240239 20.0555795,189.667719 L20.225,189.495508 L19.577596,188.848087 L93.5582193,114.867464 C93.5832455,114.843217 93.6073942,114.818289 93.631976,114.793707 L94.0658252,114.359858 C96.7015165,111.724166 103.318211,114.067561 108.844626,119.593976 Z" id="Combined-Shape" fill="#BEEBF4"></path>
            <rect id="Solid" stroke="#BEEBF4" stroke-width="7" x="105.5" y="5.5" width="126" height="126" rx="63"></rect>
            <rect id="Rectangle" stroke="#006272" x="108.5" y="4.5" width="120" height="120" rx="60"></rect>
            <path d="M205.422216,59.638591 C205.44709,94.962219 176.831809,123.5775 141.508181,123.552626 C106.184553,123.52772 77.5289172,94.8720838 77.504027,59.5484559" id="Rectangle-Copy-2" stroke="#006272" transform="translate(141.463121, 91.550541) rotate(45.000000) translate(-141.463121, -91.550541) "></path>
            <path d="M144.108904,-16.7550438 C177.166313,-16.7652455 203.956366,9.99088477 203.946164,43.0064487 C203.935957,76.0220127 177.129359,102.794688 144.07195,102.804893" id="Rectangle-Copy-3" stroke="#006272" transform="translate(174.009057, 43.024924) rotate(-77.000000) translate(-174.009057, -43.024924) "></path>
            <rect id="Rectangle-Copy" stroke="#006272" x="104.5" y="-0.5" width="129" height="129" rx="64.5"></rect>
            <path d="M126.9181,124.996864 L127.26447,125.350362 L127.621606,125.000427 L127.268033,124.646893 L126.9181,124.996864 Z M119.119366,132.79644 L118.538912,133.376956 L119.373292,133.593288 C119.298263,133.330357 119.213521,133.064566 119.119366,132.79644 Z M105.170056,118.049961 C104.939042,117.945385 104.708928,117.847048 104.480012,117.75513 L104.647227,118.572705 L105.170056,118.049961 Z M112.571238,110.650001 L112.921209,110.300088 L112.567684,109.946506 L112.21775,110.303642 L112.571238,110.650001 Z" id="Combined-Shape" stroke="#006272" fill="#F0F6FF"></path>
            <path d="M117.723715,139.840057 L118.176825,140.187036 L118.480817,139.790062 L118.127264,139.436508 L117.723715,139.840057 Z M44.5001582,213.063614 L44.1466404,213.417131 L44.5001938,213.770685 L44.8537116,213.417096 L44.5001582,213.063614 Z M24.2846982,192.848092 L23.9311539,192.494538 L23.9311494,193.20164 L24.2846982,192.848092 Z" id="Combined-Shape" stroke="#006272"></path>
            <path d="M34.0505989,189.50823 C30.8052826,189.510517 27.9896425,195.363594 27.9845031,202.657276 L27.9836219,203.897643 C27.9784899,211.190886 30.78542,217.039029 34.0297916,217.036744 L34.625804,217.036323 C37.8711203,217.034037 40.6867604,211.180959 40.6918998,203.887277 L40.692781,202.64691 C40.6979131,195.353667 37.8909829,189.505524 34.6466114,189.507809 L34.0505996,189.50823 Z" id="Rectangle" stroke="#006272" transform="translate(34.338201, 203.272277) rotate(-45.000000) translate(-34.338201, -203.272277) "></path>
        </g>
    </g>
</svg>