<?xml version="1.0" encoding="UTF-8" standalone="no"?>
<!DOCTYPE svg PUBLIC "-//W3C//DTD SVG 1.1//EN" "http://www.w3.org/Graphics/SVG/1.1/DTD/svg11.dtd">
<svg
	id="wellcomelogo"
	xmlns="http://www.w3.org/2000/svg"
	viewBox="0 0 241.893 241.893"
	height="241.893"
	width="241.893"
>
	<path
		d="M178.141 190.981s-15.257-4.55-28.557-8.461c-9.835-2.893-15.49-8.372-17.836-16.977-1.57-5.759-5.585-20.415-10.829-40.352l-17.298 65.79s-20.242-6.026-30.074-8.697c-9.505-2.579-14.49-8.94-16.977-18.345-3.888-14.696-25.159-95.68-25.159-95.68l38.727-4.502 17.267 65.607 17.267-65.607h.083s7.385.012 17.598.012c9.432 0 15.83 4.615 18.462 14.222 1.021 3.72 7.048 26.316 13.622 51.32l17.255-65.554 38.788 4.264zM0 .004v241.89h241.89V.003H0"
		fill="#006272"
	/>
</svg>
