<?xml version="1.0" encoding="UTF-8"?>
<svg width="182px" height="182px" viewBox="0 0 182 182" version="1.1" xmlns="http://www.w3.org/2000/svg" xmlns:xlink="http://www.w3.org/1999/xlink">
    <!-- Generator: Sketch 59.1 (86144) - https://sketch.com -->
    <title>Wellcome_logo</title>
    <desc>Created with Sketch.</desc>
    <defs>
        <polygon id="path-1" points="0.06 0.582 181.417 0.582 181.417 182 0.06 182"></polygon>
    </defs>
    <g id="1.0-Design-system" stroke="none" stroke-width="1" fill="none" fill-rule="evenodd">
        <g id="Wellcome_logo">
            <mask id="mask-2" fill="white">
                <use xlink:href="#path-1"></use>
            </mask>
            <g id="Clip-2"></g>
            <path d="M62.971,152.666 C62.471,153.426 61.408,153.787 60.463,153.787 C58.578,153.787 57.549,152.482 57.396,150.609 L68.156,150.609 L68.156,152.666 L62.971,152.666 Z M60.404,144.801 C62.09,144.801 63.182,146.014 63.182,147.588 L57.424,147.588 C57.717,145.766 58.748,144.801 60.404,144.801 Z M68.156,146.469 C67.109,142.978 64.535,141.051 60.139,141.051 C56.746,141.051 54.16,142.773 52.85,145.312 L54.051,141.445 L48.025,141.445 L45.873,151.213 L45.754,151.213 L43.684,141.445 L38.254,141.445 L36.301,151.213 L36.213,151.213 L33.91,141.445 L27.887,141.445 L32.668,157.146 L38.606,157.146 L40.908,147.434 L40.994,147.434 L43.238,157.146 L49.176,157.146 L51.994,148.072 C51.937,148.486 51.898,148.91 51.898,149.342 C51.898,154.572 55.508,157.539 60.404,157.539 C63.775,157.539 66.818,156.143 68.156,153.143 L68.156,157.146 L73.912,157.146 L73.912,135.545 L68.156,135.545 L68.156,146.469 Z M146.839,144.801 C148.522,144.801 149.608,146.014 149.608,147.588 L143.856,147.588 C144.153,145.766 145.188,144.801 146.839,144.801 Z M146.899,153.787 C145.005,153.787 143.979,152.482 143.831,150.609 L155.138,150.609 C155.11,144.529 152.479,141.051 146.573,141.051 C142.466,141.051 139.544,143.574 138.638,147.018 L138.638,146.348 C138.638,143.803 137.312,141.051 133.407,141.051 C131.14,141.051 129.745,141.865 128.948,142.65 C128.866,142.744 128.774,142.836 128.716,142.924 C128.421,143.232 128.271,143.441 128.153,143.562 C127.419,141.928 125.642,141.051 124.02,141.051 C121.896,141.051 120.182,141.717 118.973,143.562 L118.881,143.562 L118.881,141.445 L113.299,141.445 L113.299,157.146 L119.061,157.146 L119.061,148.643 C119.061,146.98 119.561,145.742 121.098,145.742 C122.959,145.742 123.072,147.16 123.072,148.643 L123.072,157.146 L128.866,157.146 L128.866,148.643 C128.866,146.98 129.364,145.742 130.897,145.742 C132.729,145.742 132.878,147.16 132.878,148.643 L132.878,157.146 L138.638,157.146 L138.638,151.773 C139.589,155.478 142.759,157.539 146.839,157.539 C150.386,157.539 153.575,155.998 154.784,152.666 L149.403,152.666 C148.907,153.426 147.843,153.787 146.899,153.787 Z M104.945,153.271 C102.672,153.271 102.346,150.973 102.346,149.279 C102.346,147.588 102.672,145.316 104.945,145.316 C107.213,145.316 107.541,147.588 107.541,149.279 C107.541,150.973 107.213,153.271 104.945,153.271 Z M91.959,150.937 C91.809,152.213 91.018,153.271 89.51,153.271 C87.65,153.271 86.969,151.822 86.969,149.307 C86.969,147.4 87.439,145.316 89.627,145.316 C90.99,145.316 91.809,146.225 91.809,147.799 L96.693,147.799 C96.623,148.283 96.586,148.777 96.586,149.279 C96.586,149.842 96.631,150.396 96.719,150.937 L91.959,150.937 Z M104.945,141.051 C100.645,141.051 98.105,143.215 97.096,146.125 C96.25,142.592 93.023,141.051 89.627,141.051 C85.35,141.051 82.102,143.588 81.365,147.555 L81.365,135.545 L75.605,135.545 L75.605,157.146 L81.365,157.146 L81.365,151.223 C82.09,155.389 85.24,157.539 89.449,157.539 C93.049,157.539 96.016,155.75 97.115,152.492 C98.137,155.385 100.67,157.539 104.945,157.539 C110.701,157.539 113.299,153.637 113.299,149.279 C113.299,144.926 110.701,141.051 104.945,141.051 Z M126.376,31.674 L114.248,77.75 C109.627,60.176 105.391,44.293 104.674,41.678 C102.822,34.926 98.326,31.682 91.697,31.682 C84.518,31.682 79.328,31.674 79.328,31.674 C79.293,31.674 79.27,31.674 79.27,31.674 L67.133,77.787 L54.996,31.674 L27.775,34.838 C27.775,34.838 42.727,91.762 45.459,102.09 C47.207,108.701 50.711,113.172 57.393,114.984 C64.303,116.861 78.531,121.098 78.531,121.098 L90.689,74.855 C94.375,88.869 97.195,99.17 98.301,103.217 C99.951,109.266 103.924,113.117 110.836,115.15 C120.186,117.898 130.909,121.098 130.909,121.098 L153.64,34.672 L126.376,31.674 Z M0,182 L181.417,182 L181.417,0.582 L0,0.582 L0,182 Z" id="Fill-1" fill="#1A1919" mask="url(#mask-2)"></path>
        </g>
    </g>
</svg>