<?xml version="1.0" encoding="UTF-8" standalone="no"?>
<svg
   xmlns:dc="http://purl.org/dc/elements/1.1/"
   xmlns:cc="http://creativecommons.org/ns#"
   xmlns:rdf="http://www.w3.org/1999/02/22-rdf-syntax-ns#"
   xmlns:svg="http://www.w3.org/2000/svg"
   xmlns="http://www.w3.org/2000/svg"
   viewBox="0 0 241.89333 241.89333"
   height="241.89333"
   width="241.89333"
   xml:space="preserve"
   id="svg2"
   version="1.1"><metadata
     id="metadata8"><rdf:RDF><cc:Work
         rdf:about=""><dc:format>image/svg+xml</dc:format><dc:type
           rdf:resource="http://purl.org/dc/dcmitype/StillImage" /><dc:title></dc:title></cc:Work></rdf:RDF></metadata><defs
     id="defs6" /><g
     transform="matrix(1.3333333,0,0,-1.3333333,0,241.89333)"
     id="g10"><g
       transform="scale(0.1)"
       id="g12"><path
         id="path14"
         style="fill:#231f20;fill-opacity:1;fill-rule:nonzero;stroke:none"
         d="m 1336.06,381.84 c 0,0 -114.43,34.129 -214.18,63.461 C 1048.12,467 1005.71,508.09 988.113,572.629 976.328,615.82 946.223,725.738 906.895,875.27 L 777.156,381.84 c 0,0 -151.812,45.199 -225.554,65.23 -71.289,19.34 -108.672,67.051 -127.325,137.59 -29.16,110.219 -188.691,717.6 -188.691,717.6 l 290.449,33.76 129.5,-492.051 129.504,492.051 c 0,0 0.254,0 0.625,0 0,0 55.383,-0.09 131.981,-0.09 70.746,0 118.725,-34.61 138.465,-106.66 7.66,-27.9 52.86,-197.37 102.17,-384.899 l 129.41,491.649 290.91,-31.98 z M 0,1814.17 V 0 H 1814.18 V 1814.17 H 0" /></g></g></svg>