<?xml version="1.0" encoding="UTF-8"?>
<svg width="160px" height="160px" viewBox="0 0 160 160" version="1.1" xmlns="http://www.w3.org/2000/svg" xmlns:xlink="http://www.w3.org/1999/xlink">
    <!-- Generator: Sketch 59.1 (86144) - https://sketch.com -->
    <title>Icon_How_Extract_160px</title>
    <desc>Created with Sketch.</desc>
    <defs>
        <rect id="path-1" x="38" y="21" width="84" height="118" rx="4.8"></rect>
        <filter x="-14.3%" y="-9.3%" width="131.0%" height="122.0%" filterUnits="objectBoundingBox" id="filter-2">
            <feMorphology radius="1" operator="dilate" in="SourceAlpha" result="shadowSpreadOuter1"></feMorphology>
            <feOffset dx="1" dy="2" in="shadowSpreadOuter1" result="shadowOffsetOuter1"></feOffset>
            <feGaussianBlur stdDeviation="3" in="shadowOffsetOuter1" result="shadowBlurOuter1"></feGaussianBlur>
            <feComposite in="shadowBlurOuter1" in2="SourceAlpha" operator="out" result="shadowBlurOuter1"></feComposite>
            <feColorMatrix values="0 0 0 0 0.643126028   0 0 0 0 0.665483051   0 0 0 0 0.676870748  0 0 0 0.24 0" type="matrix" in="shadowBlurOuter1"></feColorMatrix>
        </filter>
    </defs>
    <g id="Icon_How_Extract_160px" stroke="none" stroke-width="1" fill="none" fill-rule="evenodd">
        <g id="Rectangle">
            <use fill="black" fill-opacity="1" filter="url(#filter-2)" xlink:href="#path-1"></use>
            <rect stroke="#CCCCCC" stroke-width="1" stroke-linejoin="square" fill="#FFFFFF" fill-rule="evenodd" x="38.5" y="21.5" width="83" height="117" rx="4.8"></rect>
        </g>
        <text id="References" font-family="HelveticaNeue-Bold, Helvetica Neue" font-size="8" font-weight="bold" letter-spacing="0.25" fill="#005361">
            <tspan x="51.21" y="35">REFERENCES</tspan>
        </text>
        <text id="[43]-John-Tukey,-Exp" font-family="HelveticaNeue-Bold, Helvetica Neue" font-size="7.5" font-weight="bold" letter-spacing="0.2" fill="#767676">
            <tspan x="45" y="62">[43]</tspan>
            <tspan x="59.135" y="62" font-family="HelveticaNeue, Helvetica Neue" font-weight="normal"> John Tukey, </tspan>
            <tspan x="45" y="71" font-family="HelveticaNeue-BoldItalic, Helvetica Neue" font-style="italic">Exploration data </tspan>
            <tspan x="45" y="80" font-family="HelveticaNeue-BoldItalic, Helvetica Neue" font-style="italic">analysis,</tspan>
            <tspan x="77.64" y="80" font-family="HelveticaNeue, Helvetica Neue" font-weight="normal"> pages </tspan>
            <tspan x="45" y="89" font-family="HelveticaNeue, Helvetica Neue" font-weight="normal">1-67, 1997.</tspan>
            <tspan x="45" y="114">[44]</tspan>
            <tspan x="59.135" y="114" font-family="HelveticaNeue, Helvetica Neue" font-weight="normal"> Ian Smith, </tspan>
            <tspan x="99.47" y="114" font-family="HelveticaNeue-BoldItalic, Helvetica Neue" font-style="italic">Flu </tspan>
            <tspan x="45" y="123" font-family="HelveticaNeue-BoldItalic, Helvetica Neue" font-style="italic">trends,</tspan>
            <tspan x="71.405" y="123" font-family="HelveticaNeue, Helvetica Neue" font-weight="normal"> BMJ, 2012</tspan>
        </text>
        <line x1="20" y1="101" x2="140" y2="101" id="Path-6-Copy-2" stroke="#009BB2" stroke-width="2" stroke-linecap="round" stroke-linejoin="round" stroke-dasharray="4,8"></line>
        <path d="M138.915294,106.020022 C138.920235,104.918342 138.037415,104.014504 136.915577,103.972975 C135.72107,103.92885 134.783384,104.834419 134.793015,106.022617 C134.802062,107.167268 135.638479,108.037075 136.774617,108.084084 C137.910464,108.130804 138.910312,107.166979 138.915294,106.020022 M136.823005,98.4857143 C137.985021,98.4842782 138.949873,97.5123242 138.914343,96.3785691 C138.879978,95.2826823 137.963761,94.3830224 136.870185,94.3715471 C135.70846,94.3592112 134.768945,95.3113704 134.793408,96.4763956 C134.816416,97.5768725 135.736127,98.487147 136.823005,98.4857143 M152.656471,95.8793044 C150.014785,97.673217 147.454412,99.4121809 144.784506,101.225487 C147.430975,103.024017 149.987043,104.761134 152.538568,106.49525 C151.648918,107.916296 150.141058,108.236984 148.631284,107.273073 C146.838593,106.128617 145.048771,104.967769 143.359393,103.688942 C142.45659,103.005547 141.800115,103.027249 141.028128,103.752664 C140.749037,104.015171 140.393416,104.20172 140.029664,104.452683 C140.12676,104.836631 140.250163,105.197491 140.306125,105.567587 C140.599805,107.506259 139.234958,109.255151 137.300927,109.43939 C135.252102,109.634712 133.517525,108.195888 133.428081,106.227663 C133.34366,104.36241 134.98736,102.593432 136.976875,102.897266 C138.852313,103.183784 139.814665,102.096585 141.131443,101.237954 C139.81347,100.334303 138.83629,99.2408703 136.902737,99.6160451 C135.053605,99.9748276 133.303961,98.0019855 133.424733,96.1734415 C133.554354,94.2135285 135.325044,92.796176 137.359759,93.0240513 C139.330141,93.2445387 140.838958,95.1465016 140.236292,97.0415381 C139.783576,98.4644317 140.997038,98.4831327 141.561201,99.0660966 C142.199261,99.7259424 142.684981,99.187076 143.191508,98.8446858 C144.952392,97.6542851 146.703232,96.4493392 148.4799,95.2811027 C149.987761,94.2899487 151.194528,94.4432509 152.656471,95.8793044" id="Fill-1-Copy" fill="#009BB2" transform="translate(143.037647, 101.228571) rotate(180.000000) translate(-143.037647, -101.228571) "></path>
    </g>
</svg>