<?xml version="1.0" encoding="UTF-8"?>
<svg width="24px" height="24px" viewBox="0 0 24 24" version="1.1" xmlns="http://www.w3.org/2000/svg" xmlns:xlink="http://www.w3.org/1999/xlink">
    <!-- Generator: Sketch 59.1 (86144) - https://sketch.com -->
    <title>Icon_Policy_24px</title>
    <desc>Created with Sketch.</desc>
    <g id="Icon_Policy_24px" stroke="none" stroke-width="1" fill="none" fill-rule="evenodd">
        <path d="M12.7615336,1.99940767 L13,2 C13.8070713,2.00241868 14.7982511,2.15289838 15.0672727,2.96428571 L15.0672727,2.96428571 L17.0909091,2.96428571 C18.1452709,2.96428571 19,3.87570604 19,5 L19,5 L19,18.9642858 C19,20.0885797 18.1452709,21 17.0909091,21 L17.0909091,21 L6.90909092,21 C5.85472912,21 5,20.0885797 5,18.9642858 L5,18.9642858 L5,5 C5,3.87570604 5.85472912,2.96428571 6.90909092,2.96428571 L6.90909092,2.96428571 L8.93272729,2.96428571 C9.20174893,2.15289838 10.1929287,2.00241868 11,2 C11.7952858,1.99838755 12.4619525,1.99838755 13,2 Z M9,4 L6.66666667,4 C6.29847683,4 6,4.32561109 6,4.72727273 L6,4.72727273 L6,19.2727273 C6,19.6743889 6.29847683,20 6.66666667,20 L6.66666667,20 L17.3333333,20 C17.7015232,20 18,19.6743889 18,19.2727273 L18,19.2727273 L18,4.72727273 C18,4.32561109 17.7015232,4 17.3333333,4 L17.3333333,4 L15,4 L15,5 L9,5 L9,4 Z M15,16 L15,17 L8,17 L8,16 L15,16 Z M14,13 L14,14 L8,14 L8,13 L14,13 Z M16,10 L16,11 L8,11 L8,10 L16,10 Z M15,7 L15,8 L8,8 L8,7 L15,7 Z M13,3 L11,3 C10.4477153,3 10,3.44771525 10,4 L10,4 L14,4 L13.9932723,3.88337887 C13.9355072,3.38604019 13.5128358,3 13,3 L13,3 Z" id="Style" fill="#292929"></path>
    </g>
</svg>