<?xml version="1.0" encoding="UTF-8"?>
<svg width="405px" height="390px" viewBox="0 0 405 390" version="1.1" xmlns="http://www.w3.org/2000/svg" xmlns:xlink="http://www.w3.org/1999/xlink">
    <!-- Generator: Sketch 59.1 (86144) - https://sketch.com -->
    <title>Illustration_Papers</title>
    <desc>Created with Sketch.</desc>
    <g id="Illustration_Papers" stroke="none" stroke-width="1" fill="none" fill-rule="evenodd">
        <g id="Group-13" transform="translate(203.000000, 195.500000) rotate(-7.000000) translate(-203.000000, -195.500000) translate(76.000000, 64.000000)">
            <path d="M78.9882155,2.16287421 C139.170074,4.17304278 215.40037,4.17483155 245.49137,8.19305041 C258.867632,115.996623 249.842172,193.333532 218.414991,240.203777 C142.184414,228.14945 89.3580546,223.795905 59.9359139,227.143142 C75.9825142,146.793263 96.0405056,35.3077546 78.9882155,2.16287421 Z" id="Path-7-Copy" stroke="#006272" fill="#FFFFFF" transform="translate(155.708798, 121.183326) rotate(1.000000) translate(-155.708798, -121.183326) "></path>
            <path d="M33.0878535,13.7167541 C93.271169,15.7352605 169.502955,15.7476602 199.595103,19.769989 C212.986612,127.573317 203.971726,204.907459 172.550446,251.772413 C96.3167017,239.707711 43.4887042,235.346897 14.0664533,238.689973 C30.1021981,158.343898 50.1450845,46.8633605 33.0878535,13.7167541 Z" id="Path-7" stroke="#006272" fill="#FFFFFF" transform="translate(109.832140, 132.744584) rotate(7.000000) translate(-109.832140, -132.744584) "></path>
            <g id="Group-2" transform="translate(125.842974, 85.481598) rotate(7.000000) translate(-125.842974, -85.481598) translate(68.842974, 50.481598)">
                <path d="M44.3160601,2.00778028 L73.4829017,2.00983017 C80.6618902,2.01216095 86.481484,7.83175533 86.4838141,15.0107438 L86.4838221,15.1244914 C86.486152,22.304193 80.6662623,28.1248998 73.4865605,28.1254037 C73.4859518,28.1254038 73.4853431,28.1254038 73.4847346,28.1235777 L44.317893,28.1215279 C37.1389045,28.1191971 31.3193107,22.2996027 31.3169806,15.1206142 L31.3169726,15.0068666 C31.3146427,7.82716499 37.1345324,2.00645824 44.3142342,2.00595431 C44.3148429,2.00595427 44.3154516,2.00595427 44.3160601,2.00778028 Z" id="Rectangle" fill="#BEEBF4" transform="translate(58.900397, 15.065679) rotate(3.000000) translate(-58.900397, -15.065679) "></path>
                <path d="M8.50244195,49.0865373 L25.5995134,49.0877389 C29.7412375,49.0890835 33.0986955,52.4465418 33.1000398,56.588266 L33.1000444,56.6538896 C33.1013886,60.7960251 29.7437599,64.1541252 25.6016243,64.1544159 C25.6012731,64.1544159 25.6009219,64.1544159 25.6005708,64.1533625 L8.50349937,64.1521608 C4.36177525,64.1508162 1.00431727,60.7933579 1.00297298,56.6516338 L1.00296837,56.5860101 C1.0016242,52.4438746 4.35925289,49.0857745 8.5013885,49.0854838 C8.50173968,49.0854838 8.50209085,49.0854838 8.50244195,49.0865373 Z" id="Rectangle-Copy" fill="#BEEBF4" transform="translate(17.051506, 56.619950) rotate(3.000000) translate(-17.051506, -56.619950) "></path>
                <path d="M48.5686487,51.1891418 L65.6657202,51.1903434 C69.8074443,51.1916881 73.1649023,54.5491464 73.1662466,58.6908705 L73.1662512,58.7564942 C73.1675954,62.8986297 69.8099667,66.2567298 65.6678311,66.2570205 C65.6674799,66.2570205 65.6671287,66.2570205 65.6667776,66.255967 L48.5697062,66.2547654 C44.427982,66.2534208 41.0705241,62.8959625 41.0691798,58.7542383 L41.0691752,58.6886147 C41.067831,54.5464792 44.4254597,51.1883791 48.5675953,51.1880884 C48.5679465,51.1880884 48.5682976,51.1880884 48.5686487,51.1891418 Z" id="Rectangle-Copy-2" fill="#BEEBF4" transform="translate(57.117713, 58.722554) rotate(3.000000) translate(-57.117713, -58.722554) "></path>
                <path d="M88.6348555,53.2917464 L105.731927,53.292948 C109.873651,53.2942927 113.231109,56.651751 113.232453,60.7934751 L113.232458,60.8590987 C113.233802,65.0012343 109.876173,68.3593343 105.734038,68.3596251 C105.733687,68.3596251 105.733335,68.3596251 105.732984,68.3585716 L88.6359129,68.35737 C84.4941888,68.3560253 81.1367309,64.998567 81.1353866,60.8568429 L81.135382,60.7912193 C81.1340378,56.6490837 84.4916665,53.2909837 88.6338021,53.290693 C88.6341533,53.2906929 88.6345044,53.2906929 88.6348555,53.2917464 Z" id="Rectangle-Copy-3" fill="#BEEBF4" transform="translate(97.183920, 60.825159) rotate(3.000000) translate(-97.183920, -60.825159) "></path>
                <line x1="18.0221468" y1="50.1631131" x2="58.1418647" y2="27.0653101" id="Path-8" transform="translate(38.082006, 38.614212) rotate(3.000000) translate(-38.082006, -38.614212) "></line>
                <path d="M98.1962015,52.2681842 L58.0732408,29.1647416 C58.0735376,33.3936353 58.0737478,36.3871433 58.0738712,38.1452656 C58.074685,49.7407264 58.0750154,54.447426 58.0748622,52.2653644" id="Path-8-Copy" transform="translate(78.134721, 40.974247) rotate(3.000000) translate(-78.134721, -40.974247) "></path>
            </g>
            <path d="M118.700451,57.8442111 C111.960289,58.0336477 106.556992,63.5578949 106.564195,70.342058 L106.56422,70.4544285 C106.571552,77.356068 112.166098,82.9506151 119.067321,82.9579488 L148.59655,82.9647391 L148.59684,82.9656078 C155.337001,82.7761712 160.740298,77.251924 160.733096,70.4677608 L160.73307,70.3553903 C160.725738,63.4537508 155.131193,57.8592037 148.22997,57.8518701 L118.70074,57.8450797 L118.700451,57.8442111 Z" id="Rectangle" stroke="#006272" transform="translate(133.648645, 70.404909) rotate(10.000000) translate(-133.648645, -70.404909) "></path>
            <path d="M78.2816031,99.5079345 C74.5163513,99.6242389 71.5011376,102.713579 71.5051639,106.506146 L71.5051786,106.570799 C71.5092846,110.43586 74.6423713,113.568948 78.5070161,113.573054 L95.8269944,113.577037 C99.5922462,113.460733 102.60746,110.371393 102.603434,106.578826 L102.603419,106.514173 C102.599313,102.649112 99.4662262,99.5160242 95.6015813,99.5119173 L78.2816031,99.5079345 Z" id="Rectangle-Copy" stroke="#006272" transform="translate(87.054299, 106.542486) rotate(10.000000) translate(-87.054299, -106.542486) "></path>
            <path d="M117.793263,106.484275 C114.028012,106.600579 111.012798,109.689919 111.016824,113.482486 L111.016839,113.547139 C111.020945,117.412201 114.154032,120.545288 118.018677,120.549395 L135.338655,120.553378 C139.103907,120.437073 142.11912,117.347733 142.115094,113.555166 L142.115079,113.490513 C142.110973,109.625452 138.977887,106.492365 135.113242,106.488258 L117.793263,106.484275 Z" id="Rectangle-Copy-2" stroke="#006272" transform="translate(126.565959, 113.518826) rotate(10.000000) translate(-126.565959, -113.518826) "></path>
            <path d="M157.304924,113.460616 C153.539672,113.57692 150.524458,116.66626 150.528485,120.458827 L150.528499,120.52348 C150.532605,124.388541 153.665692,127.521629 157.530337,127.525736 L174.850315,127.529718 C178.615567,127.413414 181.630781,124.324074 181.626754,120.531507 L181.62674,120.466854 C181.622634,116.601793 178.489547,113.468705 174.624902,113.464598 L157.304924,113.460616 Z" id="Rectangle-Copy-3" stroke="#006272" transform="translate(166.077620, 120.495167) rotate(10.000000) translate(-166.077620, -120.495167) "></path>
            <line x1="90.060684" y1="102.782652" x2="130.178197" y2="79.6921063" id="Path-8" stroke="#006272" transform="translate(110.119441, 91.237379) rotate(10.000000) translate(-110.119441, -91.237379) "></line>
            <path d="M169.650957,109.764352 L129.522833,86.655353 C129.523805,90.884091 129.524492,93.8774888 129.524896,95.6355464 C129.527559,107.23058 129.52864,111.937107 129.528139,109.755125" id="Path-8-Copy" stroke="#006272" transform="translate(149.586895, 98.464423) rotate(10.000000) translate(-149.586895, -98.464423) "></path>
            <path d="M139.307554,133.782417 L139.307554,167.977149 C139.307554,186.623377 124.342957,201.774436 105.768497,202.075593 L105.204541,202.080162 C86.3699671,202.080162 71.1015283,186.811723 71.1015283,167.977149 L71.1015283,133.782417 C77.119707,137.799931 82.8035424,139.808689 88.1530346,139.808689 C93.5025268,139.808689 99.1863623,137.799931 105.204541,133.782417 L105.734689,134.131691 C111.556774,137.916356 117.063893,139.808689 122.256047,139.808689 C127.448202,139.808689 132.955321,137.916356 138.777406,134.131691 L139.307554,133.782417 Z M121.184575,149.364346 L99.7640074,174.891748 L90.1813779,166.851332 L86.3077651,171.467724 L100.138342,183.072956 L100.899346,182.165193 L101.261887,182.469905 L125.794767,153.232757 L121.184575,149.364346 Z" id="Combined-Shape" fill="#BEEBF4" transform="translate(105.204541, 167.931289) rotate(12.000000) translate(-105.204541, -167.931289) "></path>
            <path d="M72.8184917,171.622864 L72.8184917,136.493177 L73.5960999,137.012279 C79.5375054,140.978543 85.1282606,142.954404 90.3699981,142.954404 C95.6117357,142.954404 101.202491,140.978543 107.143896,137.012279 L107.419683,136.828174 L107.696583,137.010602 L108.224162,137.358194 C113.970318,141.093502 119.385967,142.954404 124.473011,142.954404 C129.714748,142.954404 135.305504,140.978543 141.246909,137.012279 L142.024517,136.493177 L142.024517,171.622864 C142.024517,190.733581 126.532221,206.225877 107.421504,206.225877 C88.3107882,206.225877 72.8184917,190.733581 72.8184917,171.622864 Z" id="Combined-Shape" stroke="#006272" transform="translate(107.421504, 171.577005) rotate(12.000000) translate(-107.421504, -171.577005) "></path>
            <path d="M118.698966,185.285329 L118.699502,186.469471 L99.6447399,186.469471 L99.6447399,179.443211 L112.153746,179.442931 L112.154155,146.11892 L119.172328,146.11892 L119.172328,185.285716 L118.698966,185.285329 Z" id="Combined-Shape" stroke="#006272" transform="translate(109.408534, 166.294196) rotate(52.000000) translate(-109.408534, -166.294196) "></path>
        </g>
    </g>
</svg>