<?xml version="1.0" encoding="UTF-8"?>
<svg width="405px" height="390px" viewBox="0 0 405 390" version="1.1" xmlns="http://www.w3.org/2000/svg" xmlns:xlink="http://www.w3.org/1999/xlink">
    <!-- Generator: Sketch 59.1 (86144) - https://sketch.com -->
    <title>Illustration_Glass</title>
    <desc>Created with Sketch.</desc>
    <g id="Illustration_Glass" stroke="none" stroke-width="1" fill="none" fill-rule="evenodd">
        <path d="M89,138 L185,138 L185,138 L183.162162,150 L89,150 C85.6862915,150 83,147.313708 83,144 C83,140.686292 85.6862915,138 89,138 Z" id="Rectangle" fill="#BEEBF4"></path>
        <path d="M89,105 L206,105 L206,105 L195.67144,117 L89,117 C85.6862915,117 83,114.313708 83,111 C83,107.686292 85.6862915,105 89,105 Z" id="Rectangle-Copy-9" fill="#BEEBF4"></path>
        <path d="M89,171 L185.387931,171 L185.387931,171 L190,183 L89,183 C85.6862915,183 83,180.313708 83,177 C83,173.686292 85.6862915,171 89,171 Z" id="Rectangle-Copy-6" fill="#BEEBF4"></path>
        <rect id="Rectangle" fill="#F0F6FF" x="192" y="91" width="119" height="119" rx="59.5"></rect>
        <path d="M190,131 L267,131 C274.731986,131 281,137.268014 281,145 C281,152.731986 274.731986,159 267,159 L190,159 L190,159 L190,131 Z" id="Rectangle-Copy-5" fill="#BEEBF4"></path>
        <path d="M198,178 L267,178 C274.731986,178 281,184.268014 281,192 C281,199.731986 274.731986,206 267,206 L225.666667,206 L225.666667,206 C220.0525,202.689291 215.441389,199.267069 211.833333,195.733333 C208.225277,192.199598 203.614166,186.288487 198,178 Z" id="Rectangle-Copy-7" fill="#BEEBF4"></path>
        <path d="M211,99 L274.400474,99 C278.045292,99 281,101.954708 281,105.599526 L281,105.599526 L281,105.599526 C275.566014,109.483524 269.425663,111.997629 262.578947,113.141841 C255.732232,114.286053 246.828723,114.286053 235.868421,113.141841 C228.419269,111.683168 222.892954,109.169063 219.289474,105.599526 C215.685994,102.029989 212.922836,99.8301466 211,99 Z" id="Rectangle-Copy-8" fill="#BEEBF4" transform="translate(246.000000, 106.500000) scale(1, -1) translate(-246.000000, -106.500000) "></path>
        <path d="M191.519335,206.61984 L192.38016,207.480665 C197.234227,212.334732 199.409023,218.161937 197.605395,221.064817 L197.669048,221.129942 L124.26038,294.539589 C124.093626,294.905688 123.872046,295.232303 123.593409,295.513035 L123.173133,295.936501 C120.619791,298.509005 114.24225,296.254402 108.928481,290.900687 L108.053805,290.019436 C102.740035,284.665721 100.502254,278.240239 103.055579,275.667719 L103.475855,275.244252 C103.831928,274.885506 104.262372,274.620635 104.753931,274.444953 L177.870058,201.330952 L177.935183,201.394605 C180.838063,199.590977 186.665268,201.765773 191.519335,206.61984 Z" id="Combined-Shape" fill="#BEEBF4"></path>
        <rect id="Solid" stroke="#BEEBF4" stroke-width="7" x="188.5" y="91.5" width="126" height="126" rx="63"></rect>
        <rect id="Rectangle" stroke="#006272" x="191.5" y="90.5" width="120" height="120" rx="60"></rect>
        <path d="M288.422216,145.638591 C288.44709,180.962219 259.831809,209.5775 224.508181,209.552626 C189.184553,209.52772 160.528917,180.872084 160.504027,145.548456" id="Rectangle-Copy-2" stroke="#006272" transform="translate(224.463121, 177.550541) rotate(45.000000) translate(-224.463121, -177.550541) "></path>
        <path d="M226.976143,69.4619453 C259.878734,69.4517913 286.543321,96.0826143 286.533167,128.943556 C286.523007,161.804498 259.841953,188.451788 226.939362,188.461945" id="Rectangle-Copy-3" stroke="#006272" transform="translate(256.736264, 128.961945) rotate(-77.000000) translate(-256.736264, -128.961945) "></path>
        <rect id="Rectangle-Copy" stroke="#006272" x="187.5" y="85.5" width="129" height="129" rx="64.5"></rect>
        <path d="M104.120256,238.449087 L205.890868,238.273733 C208.20093,238.269745 210.308119,239.592313 211.308911,241.674336 C212.879461,244.941672 213.664737,248.346589 213.664737,251.889087 C213.664737,255.50298 212.84749,259.117259 211.212996,262.731924 C210.239844,264.884032 208.09463,266.264995 205.732731,266.259793 L104.06708,266.035903 C102.567034,266.032597 101.122634,265.467526 100.018561,264.452059 C96.5867187,261.295632 94.8707973,257.57938 94.8707973,253.303301 C94.8707973,249.143453 96.3323127,245.026239 99.2553434,240.951659 C100.380187,239.383677 102.190534,238.452412 104.120256,238.449087 Z" id="Rectangle" stroke="#006272" transform="translate(154.267767, 252.267767) rotate(-45.000000) translate(-154.267767, -252.267767) "></path>
        <path d="M198.707107,197.95956 L202.707107,197.95956 C206.5731,197.95956 209.707107,201.093567 209.707107,204.95956 L209.707107,213.95956 L209.707107,213.95956 L191.707107,213.95956 L191.707107,204.95956 C191.707107,201.093567 194.841114,197.95956 198.707107,197.95956 Z" id="Rectangle" stroke="#006272" fill="#FFFFFF" transform="translate(200.707107, 205.959560) rotate(45.000000) translate(-200.707107, -205.959560) "></path>
    </g>
</svg>